<svg id="kity_svg_6" xmlns="http://www.w3.org/2000/svg" xmlns:xlink="http://www.w3.org/1999/xlink" version="1.1" width="999" height="2497" style="background: rgb(251, 251, 251); visibility: visible;" viewBox="0 0 999 2497"><defs id="kity_defs_7"><linearGradient id="kity_linearGradient_17" x1="0" y1="0" x2="0" y2="1"><stop id="kity_stop_18" offset="0" stop-color="rgb(255, 255, 255)"></stop><stop id="kity_stop_19" offset="1" stop-color="rgb(204, 204, 204)"></stop></linearGradient><marker id="kity_marker_2" orient="auto" refX="6" refY="0" viewBox="-7 -7 14 14" markerWidth="7" markerHeight="7" markerUnits="userSpaceOnUse"><path id="kity_path_3" fill="rgb(115, 161, 191)" stroke="none" d="M6,0A6,6,0,1,1,-6,0A6,6,0,1,1,6,0"></path></marker></defs><g id="kity_g_8"><g id="minder1" text-rendering="optimize-speed"><g id="minder_connect_group1"><path id="kity_path_1207" fill="none" stroke="rgb(115, 161, 191)" stroke-width="1" d="M542.500021636486,1455.4999945163727A174,930,0,0,1,716.500021636486,525.4999945163727"></path><path id="kity_path_1209" fill="none" stroke="rgb(115, 161, 191)" stroke-width="1" d="M802.500021636486,525.4999945163727C817.500021636486,525.4999945163727,817.500021636486,45.49999451637268,832.500021636486,45.49999451637268L922.500021636486,45.49999451637268"></path><path id="kity_path_1211" fill="none" stroke="rgb(115, 161, 191)" stroke-width="1" d="M802.500021636486,525.4999945163727C817.500021636486,525.4999945163727,817.500021636486,97.49999451637268,832.500021636486,97.49999451637268L887.500021636486,97.49999451637268"></path><path id="kity_path_1213" fill="none" stroke="rgb(115, 161, 191)" stroke-width="1" d="M802.500021636486,525.4999945163727C817.500021636486,525.4999945163727,817.500021636486,149.49999451637268,832.500021636486,149.49999451637268L935.500021636486,149.49999451637268"></path><path id="kity_path_1215" fill="none" stroke="rgb(115, 161, 191)" stroke-width="1" d="M802.500021636486,525.4999945163727C817.500021636486,525.4999945163727,817.500021636486,201.49999451637268,832.500021636486,201.49999451637268L947.500021636486,201.49999451637268"></path><path id="kity_path_1217" fill="none" stroke="rgb(115, 161, 191)" stroke-width="1" d="M802.500021636486,525.4999945163727C817.500021636486,525.4999945163727,817.500021636486,253.49999451637268,832.500021636486,253.49999451637268L887.500021636486,253.49999451637268"></path><path id="kity_path_1219" fill="none" stroke="rgb(115, 161, 191)" stroke-width="1" d="M802.500021636486,525.4999945163727C817.500021636486,525.4999945163727,817.500021636486,305.4999945163727,832.500021636486,305.4999945163727L911.500021636486,305.4999945163727"></path><path id="kity_path_1221" fill="none" stroke="rgb(115, 161, 191)" stroke-width="1" d="M802.500021636486,525.4999945163727C817.500021636486,525.4999945163727,817.500021636486,357.4999945163727,832.500021636486,357.4999945163727L886.500021636486,357.4999945163727"></path><path id="kity_path_1223" fill="none" stroke="rgb(115, 161, 191)" stroke-width="1" d="M802.500021636486,525.4999945163727C817.500021636486,525.4999945163727,817.500021636486,409.4999945163727,832.500021636486,409.4999945163727L899.500021636486,409.4999945163727"></path><path id="kity_path_1225" fill="none" stroke="rgb(115, 161, 191)" stroke-width="1" d="M802.500021636486,525.4999945163727C817.500021636486,525.4999945163727,817.500021636486,461.4999945163727,832.500021636486,461.4999945163727L911.500021636486,461.4999945163727"></path><path id="kity_path_1227" fill="none" stroke="rgb(115, 161, 191)" stroke-width="1" d="M802.500021636486,525.4999945163727C817.500021636486,525.4999945163727,817.500021636486,513.4999945163727,832.500021636486,513.4999945163727L875.500021636486,513.4999945163727"></path><path id="kity_path_1229" fill="none" stroke="rgb(115, 161, 191)" stroke-width="1" d="M802.500021636486,525.4999945163727C817.500021636486,525.4999945163727,817.500021636486,565.4999945163727,832.500021636486,565.4999945163727L899.500021636486,565.4999945163727"></path><path id="kity_path_1231" fill="none" stroke="rgb(115, 161, 191)" stroke-width="1" d="M802.500021636486,525.4999945163727C817.500021636486,525.4999945163727,817.500021636486,617.4999945163727,832.500021636486,617.4999945163727L883.500021636486,617.4999945163727"></path><path id="kity_path_1233" fill="none" stroke="rgb(115, 161, 191)" stroke-width="1" d="M802.500021636486,525.4999945163727C817.500021636486,525.4999945163727,817.500021636486,669.4999945163727,832.500021636486,669.4999945163727L911.500021636486,669.4999945163727"></path><path id="kity_path_1235" fill="none" stroke="rgb(115, 161, 191)" stroke-width="1" d="M802.500021636486,525.4999945163727C817.500021636486,525.4999945163727,817.500021636486,721.4999945163727,832.500021636486,721.4999945163727L923.500021636486,721.4999945163727"></path><path id="kity_path_1237" fill="none" stroke="rgb(115, 161, 191)" stroke-width="1" d="M802.500021636486,525.4999945163727C817.500021636486,525.4999945163727,817.500021636486,773.4999945163727,832.500021636486,773.4999945163727L909.500021636486,773.4999945163727"></path><path id="kity_path_1239" fill="none" stroke="rgb(115, 161, 191)" stroke-width="1" d="M802.500021636486,525.4999945163727C817.500021636486,525.4999945163727,817.500021636486,825.4999945163727,832.500021636486,825.4999945163727L887.500021636486,825.4999945163727"></path><path id="kity_path_1241" fill="none" stroke="rgb(115, 161, 191)" stroke-width="1" d="M802.500021636486,525.4999945163727C817.500021636486,525.4999945163727,817.500021636486,877.4999945163727,832.500021636486,877.4999945163727L911.500021636486,877.4999945163727"></path><path id="kity_path_1243" fill="none" stroke="rgb(115, 161, 191)" stroke-width="1" d="M802.500021636486,525.4999945163727C817.500021636486,525.4999945163727,817.500021636486,929.4999945163727,832.500021636486,929.4999945163727L889.500021636486,929.4999945163727"></path><path id="kity_path_1245" fill="none" stroke="rgb(115, 161, 191)" stroke-width="1" d="M802.500021636486,525.4999945163727C817.500021636486,525.4999945163727,817.500021636486,981.4999945163727,832.500021636486,981.4999945163727L947.500021636486,981.4999945163727"></path><path id="kity_path_1247" fill="none" stroke="rgb(115, 161, 191)" stroke-width="1" d="M802.500021636486,525.4999945163727C817.500021636486,525.4999945163727,817.500021636486,1033.4999945163727,832.500021636486,1033.4999945163727L923.500021636486,1033.4999945163727"></path><path id="kity_path_1249" fill="none" stroke="rgb(115, 161, 191)" stroke-width="1" d="M542.500021636486,1455.4999945163727A174,296,0,0,1,716.500021636486,1159.4999945163727"></path><path id="kity_path_1251" fill="none" stroke="rgb(115, 161, 191)" stroke-width="1" d="M801.500021636486,1159.4999945163727C816.500021636486,1159.4999945163727,816.500021636486,1095.4999945163727,831.500021636486,1095.4999945163727L902.500021636486,1095.4999945163727"></path><path id="kity_path_1253" fill="none" stroke="rgb(115, 161, 191)" stroke-width="1" d="M801.500021636486,1159.4999945163727C816.500021636486,1159.4999945163727,816.500021636486,1147.4999945163727,831.500021636486,1147.4999945163727L891.500021636486,1147.4999945163727"></path><path id="kity_path_1255" fill="none" stroke="rgb(115, 161, 191)" stroke-width="1" d="M891.500021636486,1147.4999945163727C906.500021636486,1147.4999945163727,906.500021636486,1147.4999945163727,921.500021636486,1147.4999945163727L979.500021636486,1147.4999945163727"></path><path id="kity_path_1257" fill="none" stroke="rgb(115, 161, 191)" stroke-width="1" d="M801.500021636486,1159.4999945163727C816.500021636486,1159.4999945163727,816.500021636486,1199.4999945163727,831.500021636486,1199.4999945163727L912.500021636486,1199.4999945163727"></path><path id="kity_path_1259" fill="none" stroke="rgb(115, 161, 191)" stroke-width="1" d="M801.500021636486,1159.4999945163727C816.500021636486,1159.4999945163727,816.500021636486,1251.4999945163727,831.500021636486,1251.4999945163727L922.500021636486,1251.4999945163727"></path><path id="kity_path_1261" fill="none" stroke="rgb(115, 161, 191)" stroke-width="1" d="M542.500021636486,1455.4999945163727A174,26,0,0,1,716.500021636486,1429.4999945163727"></path><path id="kity_path_1263" fill="none" stroke="rgb(115, 161, 191)" stroke-width="1" d="M787.500021636486,1429.4999945163727C802.500021636486,1429.4999945163727,802.500021636486,1313.4999945163727,817.500021636486,1313.4999945163727L882.500021636486,1313.4999945163727"></path><path id="kity_path_1265" fill="none" stroke="rgb(115, 161, 191)" stroke-width="1" d="M787.500021636486,1429.4999945163727C802.500021636486,1429.4999945163727,802.500021636486,1365.4999945163727,817.500021636486,1365.4999945163727L869.500021636486,1365.4999945163727"></path><path id="kity_path_1267" fill="none" stroke="rgb(115, 161, 191)" stroke-width="1" d="M787.500021636486,1429.4999945163727C802.500021636486,1429.4999945163727,802.500021636486,1417.4999945163727,817.500021636486,1417.4999945163727L859.500021636486,1417.4999945163727"></path><path id="kity_path_1269" fill="none" stroke="rgb(115, 161, 191)" stroke-width="1" d="M787.500021636486,1429.4999945163727C802.500021636486,1429.4999945163727,802.500021636486,1469.4999945163727,817.500021636486,1469.4999945163727L888.500021636486,1469.4999945163727"></path><path id="kity_path_1271" fill="none" stroke="rgb(115, 161, 191)" stroke-width="1" d="M787.500021636486,1429.4999945163727C802.500021636486,1429.4999945163727,802.500021636486,1521.4999945163727,817.500021636486,1521.4999945163727L946.500021636486,1521.4999945163727"></path><path id="kity_path_1273" fill="none" stroke="rgb(115, 161, 191)" stroke-width="1" d="M787.500021636486,1429.4999945163727C802.500021636486,1429.4999945163727,802.500021636486,1573.4999945163727,817.500021636486,1573.4999945163727L870.500021636486,1573.4999945163727"></path><path id="kity_path_1275" fill="none" stroke="rgb(115, 161, 191)" stroke-width="1" d="M542.500021636486,1455.4999945163727A174,478,0,0,0,716.500021636486,1933.4999945163727"></path><path id="kity_path_1277" fill="none" stroke="rgb(115, 161, 191)" stroke-width="1" d="M817.500021636486,1933.4999945163727C832.500021636486,1933.4999945163727,832.500021636486,1635.4999945163727,847.500021636486,1635.4999945163727L919.500021636486,1635.4999945163727"></path><path id="kity_path_1279" fill="none" stroke="rgb(115, 161, 191)" stroke-width="1" d="M817.500021636486,1933.4999945163727C832.500021636486,1933.4999945163727,832.500021636486,1687.4999945163727,847.500021636486,1687.4999945163727L903.500021636486,1687.4999945163727"></path><path id="kity_path_1281" fill="none" stroke="rgb(115, 161, 191)" stroke-width="1" d="M817.500021636486,1933.4999945163727C832.500021636486,1933.4999945163727,832.500021636486,1739.4999945163727,847.500021636486,1739.4999945163727L916.500021636486,1739.4999945163727"></path><path id="kity_path_1283" fill="none" stroke="rgb(115, 161, 191)" stroke-width="1" d="M817.500021636486,1933.4999945163727C832.500021636486,1933.4999945163727,832.500021636486,1791.4999945163727,847.500021636486,1791.4999945163727L917.500021636486,1791.4999945163727"></path><path id="kity_path_1285" fill="none" stroke="rgb(115, 161, 191)" stroke-width="1" d="M817.500021636486,1933.4999945163727C832.500021636486,1933.4999945163727,832.500021636486,1843.4999945163727,847.500021636486,1843.4999945163727L966.500021636486,1843.4999945163727"></path><path id="kity_path_1287" fill="none" stroke="rgb(115, 161, 191)" stroke-width="1" d="M817.500021636486,1933.4999945163727C832.500021636486,1933.4999945163727,832.500021636486,1895.4999945163727,847.500021636486,1895.4999945163727L897.500021636486,1895.4999945163727"></path><path id="kity_path_1289" fill="none" stroke="rgb(115, 161, 191)" stroke-width="1" d="M817.500021636486,1933.4999945163727C832.500021636486,1933.4999945163727,832.500021636486,1947.4999945163727,847.500021636486,1947.4999945163727L925.500021636486,1947.4999945163727"></path><path id="kity_path_1291" fill="none" stroke="rgb(115, 161, 191)" stroke-width="1" d="M817.500021636486,1933.4999945163727C832.500021636486,1933.4999945163727,832.500021636486,1999.4999945163727,847.500021636486,1999.4999945163727L958.500021636486,1999.4999945163727"></path><path id="kity_path_1293" fill="none" stroke="rgb(115, 161, 191)" stroke-width="1" d="M817.500021636486,1933.4999945163727C832.500021636486,1933.4999945163727,832.500021636486,2051.4999945163727,847.500021636486,2051.4999945163727L914.500021636486,2051.4999945163727"></path><path id="kity_path_1295" fill="none" stroke="rgb(115, 161, 191)" stroke-width="1" d="M817.500021636486,1933.4999945163727C832.500021636486,1933.4999945163727,832.500021636486,2103.4999945163727,847.500021636486,2103.4999945163727L914.500021636486,2103.4999945163727"></path><path id="kity_path_1297" fill="none" stroke="rgb(115, 161, 191)" stroke-width="1" d="M817.500021636486,1933.4999945163727C832.500021636486,1933.4999945163727,832.500021636486,2155.4999945163727,847.500021636486,2155.4999945163727L926.500021636486,2155.4999945163727"></path><path id="kity_path_1299" fill="none" stroke="rgb(115, 161, 191)" stroke-width="1" d="M817.500021636486,1933.4999945163727C832.500021636486,1933.4999945163727,832.500021636486,2207.4999945163727,847.500021636486,2207.4999945163727L925.500021636486,2207.4999945163727"></path><path id="kity_path_1301" fill="none" stroke="rgb(115, 161, 191)" stroke-width="1" d="M817.500021636486,1933.4999945163727C832.500021636486,1933.4999945163727,832.500021636486,2259.4999945163727,847.500021636486,2259.4999945163727L950.500021636486,2259.4999945163727"></path><path id="kity_path_1303" fill="none" stroke="rgb(115, 161, 191)" stroke-width="1" d="M542.500021636486,1455.4999945163727A174,930,0,0,0,716.500021636486,2385.4999945163727"></path><path id="kity_path_1313" fill="none" stroke="rgb(115, 161, 191)" stroke-width="1" d="M542.500021636486,1455.4999945163727A174,587,0,0,0,368.50002163648605,868.4999945163727"></path><path id="kity_path_1315" fill="none" stroke="rgb(115, 161, 191)" stroke-width="1" d="M291.50002163648605,868.4999945163727C276.50002163648605,868.4999945163727,276.50002163648605,804.4999945163727,261.50002163648605,804.4999945163727L206.50002163648605,804.4999945163727"></path><path id="kity_path_1317" fill="none" stroke="rgb(115, 161, 191)" stroke-width="1" d="M291.50002163648605,868.4999945163727C276.50002163648605,868.4999945163727,276.50002163648605,856.4999945163727,261.50002163648605,856.4999945163727L200.50002163648605,856.4999945163727"></path><path id="kity_path_1319" fill="none" stroke="rgb(115, 161, 191)" stroke-width="1" d="M291.50002163648605,868.4999945163727C276.50002163648605,868.4999945163727,276.50002163648605,908.4999945163727,261.50002163648605,908.4999945163727L196.50002163648605,908.4999945163727"></path><path id="kity_path_1321" fill="none" stroke="rgb(115, 161, 191)" stroke-width="1" d="M291.50002163648605,868.4999945163727C276.50002163648605,868.4999945163727,276.50002163648605,960.4999945163727,261.50002163648605,960.4999945163727L190.50002163648605,960.4999945163727"></path><path id="kity_path_1323" fill="none" stroke="rgb(115, 161, 191)" stroke-width="1" d="M542.500021636486,1455.4999945163727A174,239,0,0,0,368.50002163648605,1216.4999945163727"></path><path id="kity_path_1325" fill="none" stroke="rgb(115, 161, 191)" stroke-width="1" d="M250.50002163648605,1216.4999945163727C235.50002163648605,1216.4999945163727,235.50002163648605,1022.4999945163727,220.50002163648605,1022.4999945163727L165.50002163648605,1022.4999945163727"></path><path id="kity_path_1327" fill="none" stroke="rgb(115, 161, 191)" stroke-width="1" d="M250.50002163648605,1216.4999945163727C235.50002163648605,1216.4999945163727,235.50002163648605,1074.4999945163727,220.50002163648605,1074.4999945163727L129.50002163648605,1074.4999945163727"></path><path id="kity_path_1329" fill="none" stroke="rgb(115, 161, 191)" stroke-width="1" d="M250.50002163648605,1216.4999945163727C235.50002163648605,1216.4999945163727,235.50002163648605,1126.4999945163727,220.50002163648605,1126.4999945163727L129.50002163648605,1126.4999945163727"></path><path id="kity_path_1331" fill="none" stroke="rgb(115, 161, 191)" stroke-width="1" d="M250.50002163648605,1216.4999945163727C235.50002163648605,1216.4999945163727,235.50002163648605,1178.4999945163727,220.50002163648605,1178.4999945163727L165.50002163648605,1178.4999945163727"></path><path id="kity_path_1333" fill="none" stroke="rgb(115, 161, 191)" stroke-width="1" d="M250.50002163648605,1216.4999945163727C235.50002163648605,1216.4999945163727,235.50002163648605,1230.4999945163727,220.50002163648605,1230.4999945163727L165.50002163648605,1230.4999945163727"></path><path id="kity_path_1335" fill="none" stroke="rgb(115, 161, 191)" stroke-width="1" d="M250.50002163648605,1216.4999945163727C235.50002163648605,1216.4999945163727,235.50002163648605,1282.4999945163727,220.50002163648605,1282.4999945163727L165.50002163648605,1282.4999945163727"></path><path id="kity_path_1337" fill="none" stroke="rgb(115, 161, 191)" stroke-width="1" d="M250.50002163648605,1216.4999945163727C235.50002163648605,1216.4999945163727,235.50002163648605,1334.4999945163727,220.50002163648605,1334.4999945163727L165.50002163648605,1334.4999945163727"></path><path id="kity_path_1339" fill="none" stroke="rgb(115, 161, 191)" stroke-width="1" d="M250.50002163648605,1216.4999945163727C235.50002163648605,1216.4999945163727,235.50002163648605,1386.4999945163727,220.50002163648605,1386.4999945163727L165.50002163648605,1386.4999945163727"></path><path id="kity_path_1341" fill="none" stroke="rgb(115, 161, 191)" stroke-width="1" d="M250.50002163648605,1216.4999945163727C235.50002163648605,1216.4999945163727,235.50002163648605,1438.4999945163727,220.50002163648605,1438.4999945163727L20.500021636486053,1438.4999945163727"></path><path id="kity_path_1343" fill="none" stroke="rgb(115, 161, 191)" stroke-width="1" d="M542.500021636486,1455.4999945163727A174,187,0,0,1,368.50002163648605,1642.4999945163727"></path><path id="kity_path_1345" fill="none" stroke="rgb(115, 161, 191)" stroke-width="1" d="M243.50002163648605,1642.4999945163727C228.50002163648605,1642.4999945163727,228.50002163648605,1500.4999945163727,213.50002163648605,1500.4999945163727L74.50002163648605,1500.4999945163727"></path><path id="kity_path_1347" fill="none" stroke="rgb(115, 161, 191)" stroke-width="1" d="M243.50002163648605,1642.4999945163727C228.50002163648605,1642.4999945163727,228.50002163648605,1552.4999945163727,213.50002163648605,1552.4999945163727L112.50002163648605,1552.4999945163727"></path><path id="kity_path_1349" fill="none" stroke="rgb(115, 161, 191)" stroke-width="1" d="M243.50002163648605,1642.4999945163727C228.50002163648605,1642.4999945163727,228.50002163648605,1604.4999945163727,213.50002163648605,1604.4999945163727L61.50002163648605,1604.4999945163727"></path><path id="kity_path_1351" fill="none" stroke="rgb(115, 161, 191)" stroke-width="1" d="M243.50002163648605,1642.4999945163727C228.50002163648605,1642.4999945163727,228.50002163648605,1656.4999945163727,213.50002163648605,1656.4999945163727L55.50002163648605,1656.4999945163727"></path><path id="kity_path_1353" fill="none" stroke="rgb(115, 161, 191)" stroke-width="1" d="M243.50002163648605,1642.4999945163727C228.50002163648605,1642.4999945163727,228.50002163648605,1708.4999945163727,213.50002163648605,1708.4999945163727L95.50002163648605,1708.4999945163727"></path><path id="kity_path_1355" fill="none" stroke="rgb(115, 161, 191)" stroke-width="1" d="M243.50002163648605,1642.4999945163727C228.50002163648605,1642.4999945163727,228.50002163648605,1760.4999945163727,213.50002163648605,1760.4999945163727L110.50002163648605,1760.4999945163727"></path><path id="kity_path_1357" fill="none" stroke="rgb(115, 161, 191)" stroke-width="1" d="M243.50002163648605,1642.4999945163727C228.50002163648605,1642.4999945163727,228.50002163648605,1812.4999945163727,213.50002163648605,1812.4999945163727L21.500021636486053,1812.4999945163727"></path><path id="kity_path_1359" fill="none" stroke="rgb(115, 161, 191)" stroke-width="1" d="M542.500021636486,1455.4999945163727A174,587,0,0,1,368.50002163648605,2042.4999945163727"></path><path id="kity_path_1361" fill="none" stroke="rgb(115, 161, 191)" stroke-width="1" d="M272.50002163648605,2042.4999945163727C257.50002163648605,2042.4999945163727,257.50002163648605,1874.4999945163727,242.50002163648605,1874.4999945163727L175.50002163648605,1874.4999945163727"></path><path id="kity_path_1363" fill="none" stroke="rgb(115, 161, 191)" stroke-width="1" d="M272.50002163648605,2042.4999945163727C257.50002163648605,2042.4999945163727,257.50002163648605,1926.4999945163727,242.50002163648605,1926.4999945163727L141.50002163648605,1926.4999945163727"></path><path id="kity_path_1365" fill="none" stroke="rgb(115, 161, 191)" stroke-width="1" d="M272.50002163648605,2042.4999945163727C257.50002163648605,2042.4999945163727,257.50002163648605,1978.4999945163727,242.50002163648605,1978.4999945163727L117.50002163648605,1978.4999945163727"></path><path id="kity_path_1367" fill="none" stroke="rgb(115, 161, 191)" stroke-width="1" d="M272.50002163648605,2042.4999945163727C257.50002163648605,2042.4999945163727,257.50002163648605,2030.4999945163727,242.50002163648605,2030.4999945163727L180.50002163648605,2030.4999945163727"></path><path id="kity_path_1369" fill="none" stroke="rgb(115, 161, 191)" stroke-width="1" d="M272.50002163648605,2042.4999945163727C257.50002163648605,2042.4999945163727,257.50002163648605,2082.4999945163727,242.50002163648605,2082.4999945163727L144.50002163648605,2082.4999945163727"></path><path id="kity_path_1371" fill="none" stroke="rgb(115, 161, 191)" stroke-width="1" d="M272.50002163648605,2042.4999945163727C257.50002163648605,2042.4999945163727,257.50002163648605,2134.4999945163727,242.50002163648605,2134.4999945163727L187.50002163648605,2134.4999945163727"></path><path id="kity_path_1373" fill="none" stroke="rgb(115, 161, 191)" stroke-width="1" d="M272.50002163648605,2042.4999945163727C257.50002163648605,2042.4999945163727,257.50002163648605,2186.4999945163727,242.50002163648605,2186.4999945163727L186.50002163648605,2186.4999945163727"></path><path id="kity_path_1375" fill="none" stroke="rgb(115, 161, 191)" stroke-width="1" d="M272.50002163648605,2042.4999945163727C257.50002163648605,2042.4999945163727,257.50002163648605,2238.4999945163727,242.50002163648605,2238.4999945163727L176.50002163648605,2238.4999945163727"></path><path id="kity_path_1886" fill="none" stroke="rgb(115, 161, 191)" stroke-width="1" d="M817.500021636486,2385.4999945163727C832.500021636486,2385.4999945163727,832.500021636486,2321.4999945163727,847.500021636486,2321.4999945163727L894.500021636486,2321.4999945163727"></path><path id="kity_path_1887" fill="none" stroke="rgb(115, 161, 191)" stroke-width="1" d="M817.500021636486,2385.4999945163727C832.500021636486,2385.4999945163727,832.500021636486,2373.4999945163727,847.500021636486,2373.4999945163727L922.500021636486,2373.4999945163727"></path><path id="kity_path_1888" fill="none" stroke="rgb(115, 161, 191)" stroke-width="1" d="M817.500021636486,2385.4999945163727C832.500021636486,2385.4999945163727,832.500021636486,2425.4999945163727,847.500021636486,2425.4999945163727L914.500021636486,2425.4999945163727"></path><path id="kity_path_1889" fill="none" stroke="rgb(115, 161, 191)" stroke-width="1" d="M817.500021636486,2385.4999945163727C832.500021636486,2385.4999945163727,832.500021636486,2477.4999945163727,847.500021636486,2477.4999945163727L942.500021636486,2477.4999945163727"></path></g><g id="minder_node1"><path id="node_outline1" fill="rgb(115, 161, 191)" stroke="rgb(115, 161, 191)" d="M491.50002163648605,1435.4999945163727h102a5,5,0,0,1,5,5v30a5,5,0,0,1,-5,5h-102a5,5,0,0,1,-5,-5v-30a5,5,0,0,1,5,-5z" stroke-width="3"></path><g id="node_text1" fill="white"><text id="kity_text_22" text-rendering="inherit" font-size="16" dy=".8em" y="1445.0999944210052" x="510.50002163648605">Java全栈</text></g></g><g id="kity_g_14" display="none"><path id="kity_path_15" fill="rgba(0, 92, 153, 0.5)" stroke="none" d="M291.50002163648605,830.4999945163727h75v20h-75z"></path><path id="kity_path_16" fill="none" stroke="rgb(0, 76, 128)" d="M291.50002163648605,850.4999945163727L366.50002163648605,850.4999945163727" stroke-width="1"></path></g><g id="kity_g_12" display="none"><path id="kity_path_13" fill="none" stroke="rgb(66, 94, 112)" d="M721.500021636486,1541.4999945163727h93a3,3,0,0,1,3,3v20a3,3,0,0,1,-3,3h-93a3,3,0,0,1,-3,-3v-20a3,3,0,0,1,3,-3z" stroke-width="5"></path></g><g id="minder_node113"><g id="node_expander132" style="cursor: pointer;"><path id="kity_path_1692" fill="white" stroke="gray" d="M717.5000284314156,525.4999668002129A6,6,0,1,1,705.5000284314156,525.4999668002129A6,6,0,1,1,717.5000284314156,525.4999668002129"></path><path id="kity_path_1693" fill="none" stroke="gray" d="M707.0000284314156,525.4999668002129L716.0000284314156,525.4999668002129"></path></g><path id="node_outline133" fill="rgb(238, 243, 246)" stroke="rgb(115, 161, 191)" d="M721.5000284314156,512.4999668002129h78a3,3,0,0,1,3,3v20a3,3,0,0,1,-3,3h-78a3,3,0,0,1,-3,-3v-20a3,3,0,0,1,3,-3z" stroke-width="1"></path><g id="node_text133" fill="black"><text id="kity_text_1417" text-rendering="inherit" font-size="14" dy=".8em" y="516.3999668955803" x="738.5000284314156">JavaSE</text></g></g><g id="minder_node114"><g id="node_expander112" display="none" style="cursor: pointer;"><path id="kity_path_1632" fill="white" stroke="gray" d="M842.5000318288803,31.4999520778656A6,6,0,1,1,830.5000318288803,31.4999520778656A6,6,0,1,1,842.5000318288803,31.4999520778656"></path><path id="kity_path_1633" fill="none" stroke="gray"></path></g><path id="node_outline113" fill="none" stroke="none" d="M847.5000318288803,20.4999520778656h70a5,5,0,0,1,5,5v12a5,5,0,0,1,-5,5h-70a5,5,0,0,1,-5,-5v-12a5,5,0,0,1,5,-5z"></path><g id="node_text113" fill="black"><text id="kity_text_1377" text-rendering="inherit" font-size="12" dy=".8em" y="23.699952125549316" x="852.5000318288803">计算机基础</text></g></g><g id="minder_node115"><g id="node_expander113" display="none" style="cursor: pointer;"><path id="kity_path_1635" fill="white" stroke="gray" d="M842.5000318288803,83.49995362758659A6,6,0,1,1,830.5000318288803,83.49995362758659A6,6,0,1,1,842.5000318288803,83.49995362758659"></path><path id="kity_path_1636" fill="none" stroke="gray"></path></g><path id="node_outline114" fill="none" stroke="none" d="M847.5000318288803,72.49995362758659h35a5,5,0,0,1,5,5v12a5,5,0,0,1,-5,5h-35a5,5,0,0,1,-5,-5v-12a5,5,0,0,1,5,-5z"></path><g id="node_text114" fill="black"><text id="kity_text_1379" text-rendering="inherit" font-size="12" dy=".8em" y="75.69995367527031" x="852.5000318288803">博客</text></g></g><g id="minder_node116"><g id="node_expander114" display="none" style="cursor: pointer;"><path id="kity_path_1638" fill="white" stroke="gray" d="M842.5000318288803,135.49995517730713A6,6,0,1,1,830.5000318288803,135.49995517730713A6,6,0,1,1,842.5000318288803,135.49995517730713"></path><path id="kity_path_1639" fill="none" stroke="gray"></path></g><path id="node_outline115" fill="none" stroke="none" d="M847.5000318288803,124.49995517730713h83a5,5,0,0,1,5,5v12a5,5,0,0,1,-5,5h-83a5,5,0,0,1,-5,-5v-12a5,5,0,0,1,5,-5z"></path><g id="node_text115" fill="black"><text id="kity_text_1381" text-rendering="inherit" font-size="12" dy=".8em" y="127.69995522499084" x="852.5000318288803">Java基础语法</text></g></g><g id="minder_node117"><g id="node_expander115" display="none" style="cursor: pointer;"><path id="kity_path_1641" fill="white" stroke="gray" d="M842.5000318288803,187.4999567270279A6,6,0,1,1,830.5000318288803,187.4999567270279A6,6,0,1,1,842.5000318288803,187.4999567270279"></path><path id="kity_path_1642" fill="none" stroke="gray"></path></g><path id="node_outline116" fill="none" stroke="none" d="M847.5000318288803,176.4999567270279h95a5,5,0,0,1,5,5v12a5,5,0,0,1,-5,5h-95a5,5,0,0,1,-5,-5v-12a5,5,0,0,1,5,-5z"></path><g id="node_text116" fill="black"><text id="kity_text_1383" text-rendering="inherit" font-size="12" dy=".8em" y="179.6999567747116" x="852.5000318288803">流程控制和方法</text></g></g><g id="minder_node118"><g id="node_expander116" display="none" style="cursor: pointer;"><path id="kity_path_1644" fill="white" stroke="gray" d="M842.5000318288803,239.49995827674866A6,6,0,1,1,830.5000318288803,239.49995827674866A6,6,0,1,1,842.5000318288803,239.49995827674866"></path><path id="kity_path_1645" fill="none" stroke="gray"></path></g><path id="node_outline117" fill="none" stroke="none" d="M847.5000318288803,228.49995827674866h35a5,5,0,0,1,5,5v12a5,5,0,0,1,-5,5h-35a5,5,0,0,1,-5,-5v-12a5,5,0,0,1,5,-5z"></path><g id="node_text117" fill="black"><text id="kity_text_1385" text-rendering="inherit" font-size="12" dy=".8em" y="231.69995832443237" x="852.5000318288803">数组</text></g></g><g id="minder_node119"><g id="node_expander117" display="none" style="cursor: pointer;"><path id="kity_path_1647" fill="white" stroke="gray" d="M842.5000318288803,291.4999598264694A6,6,0,1,1,830.5000318288803,291.4999598264694A6,6,0,1,1,842.5000318288803,291.4999598264694"></path><path id="kity_path_1648" fill="none" stroke="gray"></path></g><path id="node_outline118" fill="none" stroke="none" d="M847.5000318288803,280.4999598264694h59a5,5,0,0,1,5,5v12a5,5,0,0,1,-5,5h-59a5,5,0,0,1,-5,-5v-12a5,5,0,0,1,5,-5z"></path><g id="node_text118" fill="black"><text id="kity_text_1387" text-rendering="inherit" font-size="12" dy=".8em" y="283.69995987415314" x="852.5000318288803">面向对象</text></g></g><g id="minder_node120"><g id="node_expander118" display="none" style="cursor: pointer;"><path id="kity_path_1650" fill="white" stroke="gray" d="M842.5000318288803,343.4999613761904A6,6,0,1,1,830.5000318288803,343.4999613761904A6,6,0,1,1,842.5000318288803,343.4999613761904"></path><path id="kity_path_1651" fill="none" stroke="gray"></path></g><path id="node_outline119" fill="none" stroke="none" d="M847.5000318288803,332.4999613761904h34a5,5,0,0,1,5,5v12a5,5,0,0,1,-5,5h-34a5,5,0,0,1,-5,-5v-12a5,5,0,0,1,5,-5z"></path><g id="node_text119" fill="black"><text id="kity_text_1389" text-rendering="inherit" font-size="12" dy=".8em" y="335.69996142387413" x="852.5000318288803">异常</text></g></g><g id="minder_node121"><g id="node_expander119" display="none" style="cursor: pointer;"><path id="kity_path_1653" fill="white" stroke="gray" d="M842.5000318288803,395.49996292591095A6,6,0,1,1,830.5000318288803,395.49996292591095A6,6,0,1,1,842.5000318288803,395.49996292591095"></path><path id="kity_path_1654" fill="none" stroke="gray"></path></g><path id="node_outline120" fill="none" stroke="none" d="M847.5000318288803,384.49996292591095h47a5,5,0,0,1,5,5v12a5,5,0,0,1,-5,5h-47a5,5,0,0,1,-5,-5v-12a5,5,0,0,1,5,-5z"></path><g id="node_text120" fill="black"><text id="kity_text_1391" text-rendering="inherit" font-size="12" dy=".8em" y="387.69996297359467" x="852.5000318288803">常用类</text></g></g><g id="minder_node122"><g id="node_expander120" display="none" style="cursor: pointer;"><path id="kity_path_1656" fill="white" stroke="gray" d="M842.5000318288803,447.4999644756317A6,6,0,1,1,830.5000318288803,447.4999644756317A6,6,0,1,1,842.5000318288803,447.4999644756317"></path><path id="kity_path_1657" fill="none" stroke="gray"></path></g><path id="node_outline121" fill="none" stroke="none" d="M847.5000318288803,436.4999644756317h59a5,5,0,0,1,5,5v12a5,5,0,0,1,-5,5h-59a5,5,0,0,1,-5,-5v-12a5,5,0,0,1,5,-5z"></path><g id="node_text121" fill="black"><text id="kity_text_1393" text-rendering="inherit" font-size="12" dy=".8em" y="439.69996452331543" x="852.5000318288803">集合框架</text></g></g><g id="minder_node123"><g id="node_expander121" display="none" style="cursor: pointer;"><path id="kity_path_1659" fill="white" stroke="gray" d="M842.5000318288803,499.4999660253525A6,6,0,1,1,830.5000318288803,499.4999660253525A6,6,0,1,1,842.5000318288803,499.4999660253525"></path><path id="kity_path_1660" fill="none" stroke="gray"></path></g><path id="node_outline122" fill="none" stroke="none" d="M847.5000318288803,488.4999660253525h23a5,5,0,0,1,5,5v12a5,5,0,0,1,-5,5h-23a5,5,0,0,1,-5,-5v-12a5,5,0,0,1,5,-5z"></path><g id="node_text122" fill="black"><text id="kity_text_1395" text-rendering="inherit" font-size="12" dy=".8em" y="491.6999660730362" x="852.5000318288803">IO</text></g></g><g id="minder_node124"><g id="node_expander122" display="none" style="cursor: pointer;"><path id="kity_path_1662" fill="white" stroke="gray" d="M842.5000318288803,551.4999675750732A6,6,0,1,1,830.5000318288803,551.4999675750732A6,6,0,1,1,842.5000318288803,551.4999675750732"></path><path id="kity_path_1663" fill="none" stroke="gray"></path></g><path id="node_outline123" fill="none" stroke="none" d="M847.5000318288803,540.4999675750732h47a5,5,0,0,1,5,5v12a5,5,0,0,1,-5,5h-47a5,5,0,0,1,-5,-5v-12a5,5,0,0,1,5,-5z"></path><g id="node_text123" fill="black"><text id="kity_text_1397" text-rendering="inherit" font-size="12" dy=".8em" y="543.699967622757" x="852.5000318288803">多线程</text></g></g><g id="minder_node125"><g id="node_expander123" display="none" style="cursor: pointer;"><path id="kity_path_1665" fill="white" stroke="gray" d="M842.5000318288803,603.499969124794A6,6,0,1,1,830.5000318288803,603.499969124794A6,6,0,1,1,842.5000318288803,603.499969124794"></path><path id="kity_path_1666" fill="none" stroke="gray"></path></g><path id="node_outline124" fill="none" stroke="none" d="M847.5000318288803,592.499969124794h31a5,5,0,0,1,5,5v12a5,5,0,0,1,-5,5h-31a5,5,0,0,1,-5,-5v-12a5,5,0,0,1,5,-5z"></path><g id="node_text124" fill="black"><text id="kity_text_1399" text-rendering="inherit" font-size="12" dy=".8em" y="595.6999691724777" x="852.5000318288803">GUI</text></g></g><g id="minder_node126"><g id="node_expander124" display="none" style="cursor: pointer;"><path id="kity_path_1668" fill="white" stroke="gray" d="M842.5000318288803,655.4999706745148A6,6,0,1,1,830.5000318288803,655.4999706745148A6,6,0,1,1,842.5000318288803,655.4999706745148"></path><path id="kity_path_1669" fill="none" stroke="gray"></path></g><path id="node_outline125" fill="none" stroke="none" d="M847.5000318288803,644.4999706745148h59a5,5,0,0,1,5,5v12a5,5,0,0,1,-5,5h-59a5,5,0,0,1,-5,-5v-12a5,5,0,0,1,5,-5z"></path><g id="node_text125" fill="black"><text id="kity_text_1401" text-rendering="inherit" font-size="12" dy=".8em" y="647.6999707221985" x="852.5000318288803">网络编程</text></g></g><g id="minder_node127"><g id="node_expander125" display="none" style="cursor: pointer;"><path id="kity_path_1671" fill="white" stroke="gray" d="M842.5000318288803,707.4999722242355A6,6,0,1,1,830.5000318288803,707.4999722242355A6,6,0,1,1,842.5000318288803,707.4999722242355"></path><path id="kity_path_1672" fill="none" stroke="gray"></path></g><path id="node_outline126" fill="none" stroke="none" d="M847.5000318288803,696.4999722242355h71a5,5,0,0,1,5,5v12a5,5,0,0,1,-5,5h-71a5,5,0,0,1,-5,-5v-12a5,5,0,0,1,5,-5z"></path><g id="node_text126" fill="black"><text id="kity_text_1403" text-rendering="inherit" font-size="12" dy=".8em" y="699.6999722719193" x="852.5000318288803">注解和反射</text></g></g><g id="minder_node128"><g id="node_expander126" display="none" style="cursor: pointer;"><path id="kity_path_1674" fill="white" stroke="gray" d="M842.5000318288803,759.4999737739563A6,6,0,1,1,830.5000318288803,759.4999737739563A6,6,0,1,1,842.5000318288803,759.4999737739563"></path><path id="kity_path_1675" fill="none" stroke="gray"></path></g><path id="node_outline127" fill="none" stroke="none" d="M847.5000318288803,748.4999737739563h57a5,5,0,0,1,5,5v12a5,5,0,0,1,-5,5h-57a5,5,0,0,1,-5,-5v-12a5,5,0,0,1,5,-5z"></path><g id="node_text127" fill="black"><text id="kity_text_1405" text-rendering="inherit" font-size="12" dy=".8em" y="751.69997382164" x="852.5000318288803">JUC编程</text></g></g><g id="minder_node129"><g id="node_expander127" display="none" style="cursor: pointer;"><path id="kity_path_1677" fill="white" stroke="gray" d="M842.5000318288803,811.4999753236771A6,6,0,1,1,830.5000318288803,811.4999753236771A6,6,0,1,1,842.5000318288803,811.4999753236771"></path><path id="kity_path_1678" fill="none" stroke="gray"></path></g><path id="node_outline128" fill="none" stroke="none" d="M847.5000318288803,800.4999753236771h35a5,5,0,0,1,5,5v12a5,5,0,0,1,-5,5h-35a5,5,0,0,1,-5,-5v-12a5,5,0,0,1,5,-5z"></path><g id="node_text128" fill="black"><text id="kity_text_1407" text-rendering="inherit" font-size="12" dy=".8em" y="803.6999753713608" x="852.5000318288803">JVM</text></g></g><g id="minder_node130"><g id="node_expander128" display="none" style="cursor: pointer;"><path id="kity_path_1680" fill="white" stroke="gray" d="M842.5000318288803,863.4999768733978A6,6,0,1,1,830.5000318288803,863.4999768733978A6,6,0,1,1,842.5000318288803,863.4999768733978"></path><path id="kity_path_1681" fill="none" stroke="gray"></path></g><path id="node_outline129" fill="none" stroke="none" d="M847.5000318288803,852.4999768733978h59a5,5,0,0,1,5,5v12a5,5,0,0,1,-5,5h-59a5,5,0,0,1,-5,-5v-12a5,5,0,0,1,5,-5z"></path><g id="node_text129" fill="black"><text id="kity_text_1409" text-rendering="inherit" font-size="12" dy=".8em" y="855.6999769210815" x="852.5000318288803">设计模式</text></g></g><g id="minder_node131"><g id="node_expander129" display="none" style="cursor: pointer;"><path id="kity_path_1683" fill="white" stroke="gray" d="M842.5000318288803,915.4999784231186A6,6,0,1,1,830.5000318288803,915.4999784231186A6,6,0,1,1,842.5000318288803,915.4999784231186"></path><path id="kity_path_1684" fill="none" stroke="gray"></path></g><path id="node_outline130" fill="none" stroke="none" d="M847.5000318288803,904.4999784231186h37a5,5,0,0,1,5,5v12a5,5,0,0,1,-5,5h-37a5,5,0,0,1,-5,-5v-12a5,5,0,0,1,5,-5z"></path><g id="node_text130" fill="black"><text id="kity_text_1411" text-rendering="inherit" font-size="12" dy=".8em" y="907.6999784708023" x="852.5000318288803">XML</text></g></g><g id="minder_node132"><g id="node_expander130" display="none" style="cursor: pointer;"><path id="kity_path_1686" fill="white" stroke="gray" d="M842.5000318288803,967.4999799728394A6,6,0,1,1,830.5000318288803,967.4999799728394A6,6,0,1,1,842.5000318288803,967.4999799728394"></path><path id="kity_path_1687" fill="none" stroke="gray"></path></g><path id="node_outline131" fill="none" stroke="none" d="M847.5000318288803,956.4999799728394h95a5,5,0,0,1,5,5v12a5,5,0,0,1,-5,5h-95a5,5,0,0,1,-5,-5v-12a5,5,0,0,1,5,-5z"></path><g id="node_text131" fill="black"><text id="kity_text_1413" text-rendering="inherit" font-size="12" dy=".8em" y="959.6999800205231" x="852.5000318288803">数据结构和算法</text></g></g><g id="minder_node133"><g id="node_expander131" display="none" style="cursor: pointer;"><path id="kity_path_1689" fill="white" stroke="gray" d="M842.5000318288803,1019.4999815225601A6,6,0,1,1,830.5000318288803,1019.4999815225601A6,6,0,1,1,842.5000318288803,1019.4999815225601"></path><path id="kity_path_1690" fill="none" stroke="gray"></path></g><path id="node_outline132" fill="none" stroke="none" d="M847.5000318288803,1008.4999815225601h71a5,5,0,0,1,5,5v12a5,5,0,0,1,-5,5h-71a5,5,0,0,1,-5,-5v-12a5,5,0,0,1,5,-5z"></path><g id="node_text132" fill="black"><text id="kity_text_1415" text-rendering="inherit" font-size="12" dy=".8em" y="1011.6999815702438" x="852.5000318288803">正则表达式</text></g></g><g id="minder_node134"><g id="node_expander138" style="cursor: pointer;"><path id="kity_path_1710" fill="white" stroke="gray" d="M717.5000284314156,1159.4999856948853A6,6,0,1,1,705.5000284314156,1159.4999856948853A6,6,0,1,1,717.5000284314156,1159.4999856948853"></path><path id="kity_path_1711" fill="none" stroke="gray" d="M707.0000284314156,1159.4999856948853L716.0000284314156,1159.4999856948853"></path></g><path id="node_outline139" fill="rgb(238, 243, 246)" stroke="rgb(115, 161, 191)" d="M721.5000284314156,1146.4999856948853h77a3,3,0,0,1,3,3v20a3,3,0,0,1,-3,3h-77a3,3,0,0,1,-3,-3v-20a3,3,0,0,1,3,-3z" stroke-width="1"></path><g id="node_text139" fill="black"><text id="kity_text_1429" text-rendering="inherit" font-size="14" dy=".8em" y="1150.3999857902527" x="738.5000284314156">数据库</text></g></g><g id="minder_node135"><g id="node_expander133" display="none" style="cursor: pointer;"><path id="kity_path_1695" fill="white" stroke="gray" d="M841.500031799078,1081.499983370304A6,6,0,1,1,829.500031799078,1081.499983370304A6,6,0,1,1,841.500031799078,1081.499983370304"></path><path id="kity_path_1696" fill="none" stroke="gray"></path></g><path id="node_outline134" fill="none" stroke="none" d="M846.500031799078,1070.499983370304h51a5,5,0,0,1,5,5v12a5,5,0,0,1,-5,5h-51a5,5,0,0,1,-5,-5v-12a5,5,0,0,1,5,-5z"></path><g id="node_text134" fill="black"><text id="kity_text_1419" text-rendering="inherit" font-size="12" dy=".8em" y="1073.6999834179878" x="851.500031799078">MySQL</text></g></g><g id="minder_node136"><g id="node_expander135" style="cursor: pointer;"><path id="kity_path_1701" fill="white" stroke="gray" d="M841.500031799078,1133.4999849200249A6,6,0,1,1,829.500031799078,1133.4999849200249A6,6,0,1,1,841.500031799078,1133.4999849200249"></path><path id="kity_path_1702" fill="none" stroke="gray" d="M831.000031799078,1133.4999849200249L840.000031799078,1133.4999849200249"></path></g><path id="node_outline136" fill="none" stroke="none" d="M846.500031799078,1122.4999849200249h40a5,5,0,0,1,5,5v12a5,5,0,0,1,-5,5h-40a5,5,0,0,1,-5,-5v-12a5,5,0,0,1,5,-5z"></path><g id="node_text136" fill="black"><text id="kity_text_1423" text-rendering="inherit" font-size="12" dy=".8em" y="1125.6999849677086" x="851.500031799078">JDBC</text></g></g><g id="minder_node137"><g id="node_expander134" display="none" style="cursor: pointer;"><path id="kity_path_1698" fill="white" stroke="gray" d="M931.500034481287,1133.4999849200249A6,6,0,1,1,919.500034481287,1133.4999849200249A6,6,0,1,1,931.500034481287,1133.4999849200249"></path><path id="kity_path_1699" fill="none" stroke="gray"></path></g><path id="node_outline135" fill="none" stroke="none" d="M936.500034481287,1122.4999849200249h38a5,5,0,0,1,5,5v12a5,5,0,0,1,-5,5h-38a5,5,0,0,1,-5,-5v-12a5,5,0,0,1,5,-5z"></path><g id="node_text135" fill="black"><text id="kity_text_1421" text-rendering="inherit" font-size="12" dy=".8em" y="1125.6999849677086" x="941.500034481287">Juint</text></g></g><g id="minder_node138"><g id="node_expander136" display="none" style="cursor: pointer;"><path id="kity_path_1704" fill="white" stroke="gray" d="M841.500031799078,1185.4999864697456A6,6,0,1,1,829.500031799078,1185.4999864697456A6,6,0,1,1,841.500031799078,1185.4999864697456"></path><path id="kity_path_1705" fill="none" stroke="gray"></path></g><path id="node_outline137" fill="none" stroke="none" d="M846.500031799078,1174.4999864697456h61a5,5,0,0,1,5,5v12a5,5,0,0,1,-5,5h-61a5,5,0,0,1,-5,-5v-12a5,5,0,0,1,5,-5z"></path><g id="node_text137" fill="black"><text id="kity_text_1425" text-rendering="inherit" font-size="12" dy=".8em" y="1177.6999865174294" x="851.500031799078">UML类图</text></g></g><g id="minder_node139"><g id="node_expander137" display="none" style="cursor: pointer;"><path id="kity_path_1707" fill="white" stroke="gray" d="M841.500031799078,1237.4999880194664A6,6,0,1,1,829.500031799078,1237.4999880194664A6,6,0,1,1,841.500031799078,1237.4999880194664"></path><path id="kity_path_1708" fill="none" stroke="gray"></path></g><path id="node_outline138" fill="none" stroke="none" d="M846.500031799078,1226.4999880194664h71a5,5,0,0,1,5,5v12a5,5,0,0,1,-5,5h-71a5,5,0,0,1,-5,-5v-12a5,5,0,0,1,5,-5z"></path><g id="node_text138" fill="black"><text id="kity_text_1427" text-rendering="inherit" font-size="12" dy=".8em" y="1229.6999880671501" x="851.500031799078">数据库设计</text></g></g><g id="minder_node140"><g id="node_expander145" style="cursor: pointer;"><path id="kity_path_1731" fill="white" stroke="gray" d="M717.5000284314156,1429.4999937415123A6,6,0,1,1,705.5000284314156,1429.4999937415123A6,6,0,1,1,717.5000284314156,1429.4999937415123"></path><path id="kity_path_1732" fill="none" stroke="gray" d="M707.0000284314156,1429.4999937415123L716.0000284314156,1429.4999937415123"></path></g><path id="node_outline146" fill="rgb(238, 243, 246)" stroke="rgb(115, 161, 191)" d="M721.5000284314156,1416.4999937415123h63a3,3,0,0,1,3,3v20a3,3,0,0,1,-3,3h-63a3,3,0,0,1,-3,-3v-20a3,3,0,0,1,3,-3z" stroke-width="1"></path><g id="node_text146" fill="black"><text id="kity_text_1443" text-rendering="inherit" font-size="14" dy=".8em" y="1420.3999938368797" x="738.5000284314156">前端</text></g></g><g id="minder_node141"><g id="node_expander139" display="none" style="cursor: pointer;"><path id="kity_path_1713" fill="white" stroke="gray" d="M827.5000313818455,1299.4999898672104A6,6,0,1,1,815.5000313818455,1299.4999898672104A6,6,0,1,1,827.5000313818455,1299.4999898672104"></path><path id="kity_path_1714" fill="none" stroke="gray"></path></g><path id="node_outline140" fill="none" stroke="none" d="M832.5000313818455,1288.4999898672104h45a5,5,0,0,1,5,5v12a5,5,0,0,1,-5,5h-45a5,5,0,0,1,-5,-5v-12a5,5,0,0,1,5,-5z"></path><g id="node_text140" fill="black"><text id="kity_text_1431" text-rendering="inherit" font-size="12" dy=".8em" y="1291.699989914894" x="837.5000313818455">HTML</text></g></g><g id="minder_node142"><g id="node_expander140" display="none" style="cursor: pointer;"><path id="kity_path_1716" fill="white" stroke="gray" d="M827.5000313818455,1351.4999914169312A6,6,0,1,1,815.5000313818455,1351.4999914169312A6,6,0,1,1,827.5000313818455,1351.4999914169312"></path><path id="kity_path_1717" fill="none" stroke="gray"></path></g><path id="node_outline141" fill="none" stroke="none" d="M832.5000313818455,1340.4999914169312h32a5,5,0,0,1,5,5v12a5,5,0,0,1,-5,5h-32a5,5,0,0,1,-5,-5v-12a5,5,0,0,1,5,-5z"></path><g id="node_text141" fill="black"><text id="kity_text_1433" text-rendering="inherit" font-size="12" dy=".8em" y="1343.6999914646149" x="837.5000313818455">CSS</text></g></g><g id="minder_node143"><g id="node_expander141" display="none" style="cursor: pointer;"><path id="kity_path_1719" fill="white" stroke="gray" d="M827.5000313818455,1403.499992966652A6,6,0,1,1,815.5000313818455,1403.499992966652A6,6,0,1,1,827.5000313818455,1403.499992966652"></path><path id="kity_path_1720" fill="none" stroke="gray"></path></g><path id="node_outline142" fill="none" stroke="none" d="M832.5000313818455,1392.499992966652h22a5,5,0,0,1,5,5v12a5,5,0,0,1,-5,5h-22a5,5,0,0,1,-5,-5v-12a5,5,0,0,1,5,-5z"></path><g id="node_text142" fill="black"><text id="kity_text_1435" text-rendering="inherit" font-size="12" dy=".8em" y="1395.6999930143356" x="837.5000313818455">JS</text></g></g><g id="minder_node144"><g id="node_expander142" display="none" style="cursor: pointer;"><path id="kity_path_1722" fill="white" stroke="gray" d="M827.5000313818455,1455.4999945163727A6,6,0,1,1,815.5000313818455,1455.4999945163727A6,6,0,1,1,827.5000313818455,1455.4999945163727"></path><path id="kity_path_1723" fill="none" stroke="gray"></path></g><path id="node_outline143" fill="none" stroke="none" d="M832.5000313818455,1444.4999945163727h51a5,5,0,0,1,5,5v12a5,5,0,0,1,-5,5h-51a5,5,0,0,1,-5,-5v-12a5,5,0,0,1,5,-5z"></path><g id="node_text143" fill="black"><text id="kity_text_1437" text-rendering="inherit" font-size="12" dy=".8em" y="1447.6999945640564" x="837.5000313818455">jQuery</text></g></g><g id="minder_node145"><g id="node_expander143" display="none" style="cursor: pointer;"><path id="kity_path_1725" fill="white" stroke="gray" d="M827.5000313818455,1507.4999960660934A6,6,0,1,1,815.5000313818455,1507.4999960660934A6,6,0,1,1,827.5000313818455,1507.4999960660934"></path><path id="kity_path_1726" fill="none" stroke="gray"></path></g><path id="node_outline144" fill="none" stroke="none" d="M832.5000313818455,1496.4999960660934h109a5,5,0,0,1,5,5v12a5,5,0,0,1,-5,5h-109a5,5,0,0,1,-5,-5v-12a5,5,0,0,1,5,-5z"></path><g id="node_text144" fill="black"><text id="kity_text_1439" text-rendering="inherit" font-size="12" dy=".8em" y="1499.6999961137772" x="837.5000313818455">Layui / BootStrap</text></g></g><g id="minder_node146"><g id="node_expander144" display="none" style="cursor: pointer;"><path id="kity_path_1728" fill="white" stroke="gray" d="M827.5000313818455,1559.4999976158142A6,6,0,1,1,815.5000313818455,1559.4999976158142A6,6,0,1,1,827.5000313818455,1559.4999976158142"></path><path id="kity_path_1729" fill="none" stroke="gray"></path></g><path id="node_outline145" fill="none" stroke="none" d="M832.5000313818455,1548.4999976158142h33a5,5,0,0,1,5,5v12a5,5,0,0,1,-5,5h-33a5,5,0,0,1,-5,-5v-12a5,5,0,0,1,5,-5z"></path><g id="node_text145" fill="black"><text id="kity_text_1441" text-rendering="inherit" font-size="12" dy=".8em" y="1551.699997663498" x="837.5000313818455">Vue</text></g></g><g id="minder_node147"><g id="node_expander159" style="cursor: pointer;"><path id="kity_path_1773" fill="white" stroke="gray" d="M717.5000284314156,1933.5000087618828A6,6,0,1,1,705.5000284314156,1933.5000087618828A6,6,0,1,1,717.5000284314156,1933.5000087618828"></path><path id="kity_path_1774" fill="none" stroke="gray" d="M707.0000284314156,1933.5000087618828L716.0000284314156,1933.5000087618828"></path></g><path id="node_outline160" fill="rgb(238, 243, 246)" stroke="rgb(115, 161, 191)" d="M721.5000284314156,1920.5000087618828h93a3,3,0,0,1,3,3v20a3,3,0,0,1,-3,3h-93a3,3,0,0,1,-3,-3v-20a3,3,0,0,1,3,-3z" stroke-width="1"></path><g id="node_text160" fill="black"><text id="kity_text_1471" text-rendering="inherit" font-size="14" dy=".8em" y="1924.4000088572502" x="738.5000284314156">JavaWeb</text></g></g><g id="minder_node148"><g id="node_expander146" display="none" style="cursor: pointer;"><path id="kity_path_1734" fill="white" stroke="gray" d="M857.5000322759151,1621.4999994635582A6,6,0,1,1,845.5000322759151,1621.4999994635582A6,6,0,1,1,857.5000322759151,1621.4999994635582"></path><path id="kity_path_1735" fill="none" stroke="gray"></path></g><path id="node_outline147" fill="none" stroke="none" d="M862.5000322759151,1610.4999994635582h52a5,5,0,0,1,5,5v12a5,5,0,0,1,-5,5h-52a5,5,0,0,1,-5,-5v-12a5,5,0,0,1,5,-5z"></path><g id="node_text147" fill="black"><text id="kity_text_1445" text-rendering="inherit" font-size="12" dy=".8em" y="1613.699999511242" x="867.5000322759151">Tomcat</text></g></g><g id="minder_node149"><g id="node_expander147" display="none" style="cursor: pointer;"><path id="kity_path_1737" fill="white" stroke="gray" d="M857.5000322759151,1673.500001013279A6,6,0,1,1,845.5000322759151,1673.500001013279A6,6,0,1,1,857.5000322759151,1673.500001013279"></path><path id="kity_path_1738" fill="none" stroke="gray"></path></g><path id="node_outline148" fill="none" stroke="none" d="M862.5000322759151,1662.500001013279h36a5,5,0,0,1,5,5v12a5,5,0,0,1,-5,5h-36a5,5,0,0,1,-5,-5v-12a5,5,0,0,1,5,-5z"></path><g id="node_text148" fill="black"><text id="kity_text_1447" text-rendering="inherit" font-size="12" dy=".8em" y="1665.7000010609627" x="867.5000322759151">Http</text></g></g><g id="minder_node150"><g id="node_expander148" display="none" style="cursor: pointer;"><path id="kity_path_1740" fill="white" stroke="gray" d="M857.5000322759151,1725.5000025629997A6,6,0,1,1,845.5000322759151,1725.5000025629997A6,6,0,1,1,857.5000322759151,1725.5000025629997"></path><path id="kity_path_1741" fill="none" stroke="gray"></path></g><path id="node_outline149" fill="none" stroke="none" d="M862.5000322759151,1714.5000025629997h49a5,5,0,0,1,5,5v12a5,5,0,0,1,-5,5h-49a5,5,0,0,1,-5,-5v-12a5,5,0,0,1,5,-5z"></path><g id="node_text149" fill="black"><text id="kity_text_1449" text-rendering="inherit" font-size="12" dy=".8em" y="1717.7000026106834" x="867.5000322759151">Maven</text></g></g><g id="minder_node151"><g id="node_expander149" display="none" style="cursor: pointer;"><path id="kity_path_1743" fill="white" stroke="gray" d="M857.5000322759151,1777.5000041127205A6,6,0,1,1,845.5000322759151,1777.5000041127205A6,6,0,1,1,857.5000322759151,1777.5000041127205"></path><path id="kity_path_1744" fill="none" stroke="gray"></path></g><path id="node_outline150" fill="none" stroke="none" d="M862.5000322759151,1766.5000041127205h50a5,5,0,0,1,5,5v12a5,5,0,0,1,-5,5h-50a5,5,0,0,1,-5,-5v-12a5,5,0,0,1,5,-5z"></path><g id="node_text150" fill="black"><text id="kity_text_1451" text-rendering="inherit" font-size="12" dy=".8em" y="1769.7000041604042" x="867.5000322759151">Serviet</text></g></g><g id="minder_node152"><g id="node_expander150" display="none" style="cursor: pointer;"><path id="kity_path_1746" fill="white" stroke="gray" d="M857.5000322759151,1829.5000056624413A6,6,0,1,1,845.5000322759151,1829.5000056624413A6,6,0,1,1,857.5000322759151,1829.5000056624413"></path><path id="kity_path_1747" fill="none" stroke="gray"></path></g><path id="node_outline151" fill="none" stroke="none" d="M862.5000322759151,1818.5000056624413h99a5,5,0,0,1,5,5v12a5,5,0,0,1,-5,5h-99a5,5,0,0,1,-5,-5v-12a5,5,0,0,1,5,-5z"></path><g id="node_text151" fill="black"><text id="kity_text_1453" text-rendering="inherit" font-size="12" dy=".8em" y="1821.700005710125" x="867.5000322759151">Session, Cookie</text></g></g><g id="minder_node153"><g id="node_expander151" display="none" style="cursor: pointer;"><path id="kity_path_1749" fill="white" stroke="gray" d="M857.5000322759151,1881.500007212162A6,6,0,1,1,845.5000322759151,1881.500007212162A6,6,0,1,1,857.5000322759151,1881.500007212162"></path><path id="kity_path_1750" fill="none" stroke="gray"></path></g><path id="node_outline152" fill="none" stroke="none" d="M862.5000322759151,1870.500007212162h30a5,5,0,0,1,5,5v12a5,5,0,0,1,-5,5h-30a5,5,0,0,1,-5,-5v-12a5,5,0,0,1,5,-5z"></path><g id="node_text152" fill="black"><text id="kity_text_1455" text-rendering="inherit" font-size="12" dy=".8em" y="1873.7000072598457" x="867.5000322759151">JSP</text></g></g><g id="minder_node154"><g id="node_expander152" display="none" style="cursor: pointer;"><path id="kity_path_1752" fill="white" stroke="gray" d="M857.5000322759151,1933.5000087618828A6,6,0,1,1,845.5000322759151,1933.5000087618828A6,6,0,1,1,857.5000322759151,1933.5000087618828"></path><path id="kity_path_1753" fill="none" stroke="gray"></path></g><path id="node_outline153" fill="none" stroke="none" d="M862.5000322759151,1922.5000087618828h58a5,5,0,0,1,5,5v12a5,5,0,0,1,-5,5h-58a5,5,0,0,1,-5,-5v-12a5,5,0,0,1,5,-5z"></path><g id="node_text153" fill="black"><text id="kity_text_1457" text-rendering="inherit" font-size="12" dy=".8em" y="1925.7000088095665" x="867.5000322759151">三层架构</text></g></g><g id="minder_node155"><g id="node_expander153" display="none" style="cursor: pointer;"><path id="kity_path_1755" fill="white" stroke="gray" d="M857.5000322759151,1985.5000103116035A6,6,0,1,1,845.5000322759151,1985.5000103116035A6,6,0,1,1,857.5000322759151,1985.5000103116035"></path><path id="kity_path_1756" fill="none" stroke="gray"></path></g><path id="node_outline154" fill="none" stroke="none" d="M862.5000322759151,1974.5000103116035h91a5,5,0,0,1,5,5v12a5,5,0,0,1,-5,5h-91a5,5,0,0,1,-5,-5v-12a5,5,0,0,1,5,-5z"></path><g id="node_text154" fill="black"><text id="kity_text_1459" text-rendering="inherit" font-size="12" dy=".8em" y="1977.7000103592873" x="867.5000322759151">JSTL, EL表达式</text></g></g><g id="minder_node156"><g id="node_expander154" display="none" style="cursor: pointer;"><path id="kity_path_1758" fill="white" stroke="gray" d="M857.5000322759151,2037.5000118613243A6,6,0,1,1,845.5000322759151,2037.5000118613243A6,6,0,1,1,857.5000322759151,2037.5000118613243"></path><path id="kity_path_1759" fill="none" stroke="gray"></path></g><path id="node_outline155" fill="none" stroke="none" d="M862.5000322759151,2026.5000118613243h47a5,5,0,0,1,5,5v12a5,5,0,0,1,-5,5h-47a5,5,0,0,1,-5,-5v-12a5,5,0,0,1,5,-5z"></path><g id="node_text155" fill="black"><text id="kity_text_1461" text-rendering="inherit" font-size="12" dy=".8em" y="2029.700011909008" x="867.5000322759151">过滤器</text></g></g><g id="minder_node157"><g id="node_expander155" display="none" style="cursor: pointer;"><path id="kity_path_1761" fill="white" stroke="gray" d="M857.5000322759151,2089.500013411045A6,6,0,1,1,845.5000322759151,2089.500013411045A6,6,0,1,1,857.5000322759151,2089.500013411045"></path><path id="kity_path_1762" fill="none" stroke="gray"></path></g><path id="node_outline156" fill="none" stroke="none" d="M862.5000322759151,2078.500013411045h47a5,5,0,0,1,5,5v12a5,5,0,0,1,-5,5h-47a5,5,0,0,1,-5,-5v-12a5,5,0,0,1,5,-5z"></path><g id="node_text156" fill="black"><text id="kity_text_1463" text-rendering="inherit" font-size="12" dy=".8em" y="2081.700013458729" x="867.5000322759151">监听器</text></g></g><g id="minder_node158"><g id="node_expander156" display="none" style="cursor: pointer;"><path id="kity_path_1764" fill="white" stroke="gray" d="M857.5000322759151,2141.500014960766A6,6,0,1,1,845.5000322759151,2141.500014960766A6,6,0,1,1,857.5000322759151,2141.500014960766"></path><path id="kity_path_1765" fill="none" stroke="gray"></path></g><path id="node_outline157" fill="none" stroke="none" d="M862.5000322759151,2130.500014960766h59a5,5,0,0,1,5,5v12a5,5,0,0,1,-5,5h-59a5,5,0,0,1,-5,-5v-12a5,5,0,0,1,5,-5z"></path><g id="node_text157" fill="black"><text id="kity_text_1465" text-rendering="inherit" font-size="12" dy=".8em" y="2133.7000150084496" x="867.5000322759151">文件上传</text></g></g><g id="minder_node159"><g id="node_expander157" display="none" style="cursor: pointer;"><path id="kity_path_1767" fill="white" stroke="gray" d="M857.5000322759151,2193.5000165104866A6,6,0,1,1,845.5000322759151,2193.5000165104866A6,6,0,1,1,857.5000322759151,2193.5000165104866"></path><path id="kity_path_1768" fill="none" stroke="gray"></path></g><path id="node_outline158" fill="none" stroke="none" d="M862.5000322759151,2182.5000165104866h58a5,5,0,0,1,5,5v12a5,5,0,0,1,-5,5h-58a5,5,0,0,1,-5,-5v-12a5,5,0,0,1,5,-5z"></path><g id="node_text158" fill="black"><text id="kity_text_1467" text-rendering="inherit" font-size="12" dy=".8em" y="2185.7000165581703" x="867.5000322759151">邮件收发</text></g></g><g id="minder_node160"><g id="node_expander158" display="none" style="cursor: pointer;"><path id="kity_path_1770" fill="white" stroke="gray" d="M857.5000322759151,2245.5000180602074A6,6,0,1,1,845.5000322759151,2245.5000180602074A6,6,0,1,1,857.5000322759151,2245.5000180602074"></path><path id="kity_path_1771" fill="none" stroke="gray"></path></g><path id="node_outline159" fill="none" stroke="none" d="M862.5000322759151,2234.5000180602074h83a5,5,0,0,1,5,5v12a5,5,0,0,1,-5,5h-83a5,5,0,0,1,-5,-5v-12a5,5,0,0,1,5,-5z"></path><g id="node_text159" fill="black"><text id="kity_text_1469" text-rendering="inherit" font-size="12" dy=".8em" y="2237.700018107891" x="867.5000322759151">富文本编辑器</text></g></g><g id="minder_node161" opacity="1"><g id="node_expander164" style="cursor: pointer;"><path id="kity_path_1788" fill="white" stroke="gray" d="M717.5000284314156,2385.5000222325325A6,6,0,1,1,705.5000284314156,2385.5000222325325A6,6,0,1,1,717.5000284314156,2385.5000222325325"></path><path id="kity_path_1789" fill="none" stroke="gray" d="M707.0000284314156,2385.5000222325325L716.0000284314156,2385.5000222325325"></path></g><path id="node_outline165" fill="rgb(238, 243, 246)" stroke="rgb(115, 161, 191)" d="M721.5000284314156,2372.5000222325325h93a3,3,0,0,1,3,3v20a3,3,0,0,1,-3,3h-93a3,3,0,0,1,-3,-3v-20a3,3,0,0,1,3,-3z" stroke-width="1"></path><g id="node_text165" fill="black"><text id="kity_text_1481" text-rendering="inherit" font-size="14" dy=".8em" y="2376.4000223279" x="738.5000284314156">SSM框架</text></g></g><g id="minder_node166"><g id="node_expander169" style="cursor: pointer;"><path id="kity_path_1803" fill="white" stroke="gray" d="M379.5000157058239,868.4999770224094A6,6,0,1,1,367.5000157058239,868.4999770224094A6,6,0,1,1,379.5000157058239,868.4999770224094"></path><path id="kity_path_1804" fill="none" stroke="gray" d="M369.0000157058239,868.4999770224094L378.0000157058239,868.4999770224094"></path></g><path id="node_outline170" fill="rgb(238, 243, 246)" stroke="rgb(115, 161, 191)" d="M294.5000157058239,855.4999770224094h69a3,3,0,0,1,3,3v20a3,3,0,0,1,-3,3h-69a3,3,0,0,1,-3,-3v-20a3,3,0,0,1,3,-3z" stroke-width="1"></path><g id="node_text170" fill="black"><text id="kity_text_1491" text-rendering="inherit" font-size="14" dy=".8em" y="859.3999771177769" x="311.5000157058239">Linux</text></g></g><g id="minder_node167"><g id="node_expander165" display="none" style="cursor: pointer;"><path id="kity_path_1791" fill="white" stroke="gray" d="M263.50001287460327,790.4999746978283A6,6,0,1,1,251.50001287460327,790.4999746978283A6,6,0,1,1,263.50001287460327,790.4999746978283"></path><path id="kity_path_1792" fill="none" stroke="gray"></path></g><path id="node_outline166" fill="none" stroke="none" d="M211.50001287460327,779.4999746978283h35a5,5,0,0,1,5,5v12a5,5,0,0,1,-5,5h-35a5,5,0,0,1,-5,-5v-12a5,5,0,0,1,5,-5z"></path><g id="node_text166" fill="black"><text id="kity_text_1483" text-rendering="inherit" font-size="12" dy=".8em" y="782.699974745512" x="216.50001287460327">基础</text></g></g><g id="minder_node168"><g id="node_expander166" display="none" style="cursor: pointer;"><path id="kity_path_1794" fill="white" stroke="gray" d="M263.50001269578934,842.4999762475491A6,6,0,1,1,251.50001269578934,842.4999762475491A6,6,0,1,1,263.50001269578934,842.4999762475491"></path><path id="kity_path_1795" fill="none" stroke="gray"></path></g><path id="node_outline167" fill="none" stroke="none" d="M205.50001269578934,831.4999762475491h41a5,5,0,0,1,5,5v12a5,5,0,0,1,-5,5h-41a5,5,0,0,1,-5,-5v-12a5,5,0,0,1,5,-5z"></path><g id="node_text167" fill="black"><text id="kity_text_1485" text-rendering="inherit" font-size="12" dy=".8em" y="834.6999762952328" x="210.50001269578934">Redis</text></g></g><g id="minder_node169"><g id="node_expander167" display="none" style="cursor: pointer;"><path id="kity_path_1797" fill="white" stroke="gray" d="M263.50001257658005,894.4999777972698A6,6,0,1,1,251.50001257658005,894.4999777972698A6,6,0,1,1,263.50001257658005,894.4999777972698"></path><path id="kity_path_1798" fill="none" stroke="gray"></path></g><path id="node_outline168" fill="none" stroke="none" d="M201.50001257658005,883.4999777972698h45a5,5,0,0,1,5,5v12a5,5,0,0,1,-5,5h-45a5,5,0,0,1,-5,-5v-12a5,5,0,0,1,5,-5z"></path><g id="node_text168" fill="black"><text id="kity_text_1487" text-rendering="inherit" font-size="12" dy=".8em" y="886.6999778449535" x="206.50001257658005">Nginx</text></g></g><g id="minder_node170"><g id="node_expander168" display="none" style="cursor: pointer;"><path id="kity_path_1800" fill="white" stroke="gray" d="M263.5000123977661,946.4999793469906A6,6,0,1,1,251.5000123977661,946.4999793469906A6,6,0,1,1,263.5000123977661,946.4999793469906"></path><path id="kity_path_1801" fill="none" stroke="gray"></path></g><path id="node_outline169" fill="none" stroke="none" d="M195.5000123977661,935.4999793469906h51a5,5,0,0,1,5,5v12a5,5,0,0,1,-5,5h-51a5,5,0,0,1,-5,-5v-12a5,5,0,0,1,5,-5z"></path><g id="node_text169" fill="black"><text id="kity_text_1489" text-rendering="inherit" font-size="12" dy=".8em" y="938.6999793946743" x="200.5000123977661">Docker</text></g></g><g id="minder_node171"><g id="node_expander179" style="cursor: pointer;"><path id="kity_path_1833" fill="white" stroke="gray" d="M379.5000144839287,1216.4999873936176A6,6,0,1,1,367.5000144839287,1216.4999873936176A6,6,0,1,1,379.5000144839287,1216.4999873936176"></path><path id="kity_path_1834" fill="none" stroke="gray" d="M369.0000144839287,1216.4999873936176L378.0000144839287,1216.4999873936176"></path></g><path id="node_outline180" fill="rgb(238, 243, 246)" stroke="rgb(115, 161, 191)" d="M253.50001448392868,1203.4999873936176h110a3,3,0,0,1,3,3v20a3,3,0,0,1,-3,3h-110a3,3,0,0,1,-3,-3v-20a3,3,0,0,1,3,-3z" stroke-width="1"></path><g id="node_text180" fill="black"><text id="kity_text_1511" text-rendering="inherit" font-size="14" dy=".8em" y="1207.399987488985" x="270.5000144839287">SpringBoot</text></g></g><g id="minder_node172"><g id="node_expander170" display="none" style="cursor: pointer;"><path id="kity_path_1806" fill="white" stroke="gray" d="M222.50001165270805,1008.4999811947346A6,6,0,1,1,210.50001165270805,1008.4999811947346A6,6,0,1,1,222.50001165270805,1008.4999811947346"></path><path id="kity_path_1807" fill="none" stroke="gray"></path></g><path id="node_outline171" fill="none" stroke="none" d="M170.50001165270805,997.4999811947346h35a5,5,0,0,1,5,5v12a5,5,0,0,1,-5,5h-35a5,5,0,0,1,-5,-5v-12a5,5,0,0,1,5,-5z"></path><g id="node_text171" fill="black"><text id="kity_text_1493" text-rendering="inherit" font-size="12" dy=".8em" y="1000.6999812424183" x="175.50001165270805">基础</text></g></g><g id="minder_node173"><g id="node_expander171" display="none" style="cursor: pointer;"><path id="kity_path_1809" fill="white" stroke="gray" d="M222.50001057982445,1060.4999827444553A6,6,0,1,1,210.50001057982445,1060.4999827444553A6,6,0,1,1,222.50001057982445,1060.4999827444553"></path><path id="kity_path_1810" fill="none" stroke="gray"></path></g><path id="node_outline172" fill="none" stroke="none" d="M134.50001057982445,1049.4999827444553h71a5,5,0,0,1,5,5v12a5,5,0,0,1,-5,5h-71a5,5,0,0,1,-5,-5v-12a5,5,0,0,1,5,-5z"></path><g id="node_text172" fill="black"><text id="kity_text_1495" text-rendering="inherit" font-size="12" dy=".8em" y="1052.699982792139" x="139.50001057982445">配置及原理</text></g></g><g id="minder_node174"><g id="node_expander172" display="none" style="cursor: pointer;"><path id="kity_path_1812" fill="white" stroke="gray" d="M222.50001057982445,1112.499984294176A6,6,0,1,1,210.50001057982445,1112.499984294176A6,6,0,1,1,222.50001057982445,1112.499984294176"></path><path id="kity_path_1813" fill="none" stroke="gray"></path></g><path id="node_outline173" fill="none" stroke="none" d="M134.50001057982445,1101.499984294176h71a5,5,0,0,1,5,5v12a5,5,0,0,1,-5,5h-71a5,5,0,0,1,-5,-5v-12a5,5,0,0,1,5,-5z"></path><g id="node_text173" fill="black"><text id="kity_text_1497" text-rendering="inherit" font-size="12" dy=".8em" y="1104.6999843418598" x="139.50001057982445">持久层操作</text></g></g><g id="minder_node175"><g id="node_expander173" display="none" style="cursor: pointer;"><path id="kity_path_1815" fill="white" stroke="gray" d="M222.50001165270805,1164.4999858438969A6,6,0,1,1,210.50001165270805,1164.4999858438969A6,6,0,1,1,222.50001165270805,1164.4999858438969"></path><path id="kity_path_1816" fill="none" stroke="gray"></path></g><path id="node_outline174" fill="none" stroke="none" d="M170.50001165270805,1153.4999858438969h35a5,5,0,0,1,5,5v12a5,5,0,0,1,-5,5h-35a5,5,0,0,1,-5,-5v-12a5,5,0,0,1,5,-5z"></path><g id="node_text174" fill="black"><text id="kity_text_1499" text-rendering="inherit" font-size="12" dy=".8em" y="1156.6999858915806" x="175.50001165270805">缓存</text></g></g><g id="minder_node176"><g id="node_expander174" display="none" style="cursor: pointer;"><path id="kity_path_1818" fill="white" stroke="gray" d="M222.50001165270805,1216.4999873936176A6,6,0,1,1,210.50001165270805,1216.4999873936176A6,6,0,1,1,222.50001165270805,1216.4999873936176"></path><path id="kity_path_1819" fill="none" stroke="gray"></path></g><path id="node_outline175" fill="none" stroke="none" d="M170.50001165270805,1205.4999873936176h35a5,5,0,0,1,5,5v12a5,5,0,0,1,-5,5h-35a5,5,0,0,1,-5,-5v-12a5,5,0,0,1,5,-5z"></path><g id="node_text175" fill="black"><text id="kity_text_1501" text-rendering="inherit" font-size="12" dy=".8em" y="1208.6999874413013" x="175.50001165270805">消息</text></g></g><g id="minder_node177"><g id="node_expander175" display="none" style="cursor: pointer;"><path id="kity_path_1821" fill="white" stroke="gray" d="M222.50001165270805,1268.4999889433384A6,6,0,1,1,210.50001165270805,1268.4999889433384A6,6,0,1,1,222.50001165270805,1268.4999889433384"></path><path id="kity_path_1822" fill="none" stroke="gray"></path></g><path id="node_outline176" fill="none" stroke="none" d="M170.50001165270805,1257.4999889433384h35a5,5,0,0,1,5,5v12a5,5,0,0,1,-5,5h-35a5,5,0,0,1,-5,-5v-12a5,5,0,0,1,5,-5z"></path><g id="node_text176" fill="black"><text id="kity_text_1503" text-rendering="inherit" font-size="12" dy=".8em" y="1260.699988991022" x="175.50001165270805">检索</text></g></g><g id="minder_node178"><g id="node_expander176" display="none" style="cursor: pointer;"><path id="kity_path_1824" fill="white" stroke="gray" d="M222.50001165270805,1320.4999904930592A6,6,0,1,1,210.50001165270805,1320.4999904930592A6,6,0,1,1,222.50001165270805,1320.4999904930592"></path><path id="kity_path_1825" fill="none" stroke="gray"></path></g><path id="node_outline177" fill="none" stroke="none" d="M170.50001165270805,1309.4999904930592h35a5,5,0,0,1,5,5v12a5,5,0,0,1,-5,5h-35a5,5,0,0,1,-5,-5v-12a5,5,0,0,1,5,-5z"></path><g id="node_text177" fill="black"><text id="kity_text_1505" text-rendering="inherit" font-size="12" dy=".8em" y="1312.6999905407429" x="175.50001165270805">任务</text></g></g><g id="minder_node179"><g id="node_expander177" display="none" style="cursor: pointer;"><path id="kity_path_1827" fill="white" stroke="gray" d="M222.50001165270805,1372.49999204278A6,6,0,1,1,210.50001165270805,1372.49999204278A6,6,0,1,1,222.50001165270805,1372.49999204278"></path><path id="kity_path_1828" fill="none" stroke="gray"></path></g><path id="node_outline178" fill="none" stroke="none" d="M170.50001165270805,1361.49999204278h35a5,5,0,0,1,5,5v12a5,5,0,0,1,-5,5h-35a5,5,0,0,1,-5,-5v-12a5,5,0,0,1,5,-5z"></path><g id="node_text178" fill="black"><text id="kity_text_1507" text-rendering="inherit" font-size="12" dy=".8em" y="1364.6999920904636" x="175.50001165270805">安全</text></g></g><g id="minder_node180"><g id="node_expander178" display="none" style="cursor: pointer;"><path id="kity_path_1830" fill="white" stroke="gray" d="M222.50000733137125,1424.4999935925007A6,6,0,1,1,210.50000733137125,1424.4999935925007A6,6,0,1,1,222.50000733137125,1424.4999935925007"></path><path id="kity_path_1831" fill="none" stroke="gray"></path></g><path id="node_outline179" fill="none" stroke="none" d="M25.50000733137125,1413.4999935925007h180a5,5,0,0,1,5,5v12a5,5,0,0,1,-5,5h-180a5,5,0,0,1,-5,-5v-12a5,5,0,0,1,5,-5z"></path><g id="node_text179" fill="black"><text id="kity_text_1509" text-rendering="inherit" font-size="12" dy=".8em" y="1416.6999936401844" x="30.50000733137125">Dubbo+Zookeeper分布式开发</text></g></g><g id="minder_node181"><g id="node_expander187" style="cursor: pointer;"><path id="kity_path_1857" fill="white" stroke="gray" d="M379.5000142753124,1642.500000089407A6,6,0,1,1,367.5000142753124,1642.500000089407A6,6,0,1,1,379.5000142753124,1642.500000089407"></path><path id="kity_path_1858" fill="none" stroke="gray" d="M369.0000142753124,1642.500000089407L378.0000142753124,1642.500000089407"></path></g><path id="node_outline188" fill="rgb(238, 243, 246)" stroke="rgb(115, 161, 191)" d="M246.50001427531242,1629.500000089407h117a3,3,0,0,1,3,3v20a3,3,0,0,1,-3,3h-117a3,3,0,0,1,-3,-3v-20a3,3,0,0,1,3,-3z" stroke-width="1"></path><g id="node_text188" fill="black"><text id="kity_text_1527" text-rendering="inherit" font-size="14" dy=".8em" y="1633.4000001847744" x="263.5000142753124">SpringCloud</text></g></g><g id="minder_node182"><g id="node_expander180" display="none" style="cursor: pointer;"><path id="kity_path_1836" fill="white" stroke="gray" d="M215.50000894069672,1486.4999954402447A6,6,0,1,1,203.50000894069672,1486.4999954402447A6,6,0,1,1,215.50000894069672,1486.4999954402447"></path><path id="kity_path_1837" fill="none" stroke="gray"></path></g><path id="node_outline181" fill="none" stroke="none" d="M79.50000894069672,1475.4999954402447h119a5,5,0,0,1,5,5v12a5,5,0,0,1,-5,5h-119a5,5,0,0,1,-5,-5v-12a5,5,0,0,1,5,-5z"></path><g id="node_text181" fill="black"><text id="kity_text_1513" text-rendering="inherit" font-size="12" dy=".8em" y="1478.6999954879284" x="84.50000894069672">微服务及微服务架构</text></g></g><g id="minder_node183"><g id="node_expander181" display="none" style="cursor: pointer;"><path id="kity_path_1839" fill="white" stroke="gray" d="M215.50001007318497,1538.4999969899654A6,6,0,1,1,203.50001007318497,1538.4999969899654A6,6,0,1,1,215.50001007318497,1538.4999969899654"></path><path id="kity_path_1840" fill="none" stroke="gray"></path></g><path id="node_outline182" fill="none" stroke="none" d="M117.50001007318497,1527.4999969899654h81a5,5,0,0,1,5,5v12a5,5,0,0,1,-5,5h-81a5,5,0,0,1,-5,-5v-12a5,5,0,0,1,5,-5z"></path><g id="node_text182" fill="black"><text id="kity_text_1515" text-rendering="inherit" font-size="12" dy=".8em" y="1530.6999970376492" x="122.50001007318497">SpringCloud</text></g></g><g id="minder_node184"><g id="node_expander182" display="none" style="cursor: pointer;"><path id="kity_path_1842" fill="white" stroke="gray" d="M215.50000855326653,1590.4999985396862A6,6,0,1,1,203.50000855326653,1590.4999985396862A6,6,0,1,1,215.50000855326653,1590.4999985396862"></path><path id="kity_path_1843" fill="none" stroke="gray"></path></g><path id="node_outline183" fill="none" stroke="none" d="M66.50000855326653,1579.4999985396862h132a5,5,0,0,1,5,5v12a5,5,0,0,1,-5,5h-132a5,5,0,0,1,-5,-5v-12a5,5,0,0,1,5,-5z"></path><g id="node_text183" fill="black"><text id="kity_text_1517" text-rendering="inherit" font-size="12" dy=".8em" y="1582.69999858737" x="71.50000855326653">Eureka服务注册与发现</text></g></g><g id="minder_node185"><g id="node_expander183" display="none" style="cursor: pointer;"><path id="kity_path_1845" fill="white" stroke="gray" d="M215.5000083744526,1642.500000089407A6,6,0,1,1,203.5000083744526,1642.500000089407A6,6,0,1,1,215.5000083744526,1642.500000089407"></path><path id="kity_path_1846" fill="none" stroke="gray"></path></g><path id="node_outline184" fill="none" stroke="none" d="M60.50000837445259,1631.500000089407h138a5,5,0,0,1,5,5v12a5,5,0,0,1,-5,5h-138a5,5,0,0,1,-5,-5v-12a5,5,0,0,1,5,-5z"></path><g id="node_text184" fill="black"><text id="kity_text_1519" text-rendering="inherit" font-size="12" dy=".8em" y="1634.7000001370907" x="65.50000837445259">Feign, Ribbon负载均衡</text></g></g><g id="minder_node186"><g id="node_expander184" display="none" style="cursor: pointer;"><path id="kity_path_1848" fill="white" stroke="gray" d="M215.5000095665455,1694.5000016391277A6,6,0,1,1,203.5000095665455,1694.5000016391277A6,6,0,1,1,215.5000095665455,1694.5000016391277"></path><path id="kity_path_1849" fill="none" stroke="gray"></path></g><path id="node_outline185" fill="none" stroke="none" d="M100.50000956654549,1683.5000016391277h98a5,5,0,0,1,5,5v12a5,5,0,0,1,-5,5h-98a5,5,0,0,1,-5,-5v-12a5,5,0,0,1,5,-5z"></path><g id="node_text185" fill="black"><text id="kity_text_1521" text-rendering="inherit" font-size="12" dy=".8em" y="1686.7000016868114" x="105.50000956654549">Hystrix熔断机制</text></g></g><g id="minder_node187"><g id="node_expander185" display="none" style="cursor: pointer;"><path id="kity_path_1851" fill="white" stroke="gray" d="M215.50001001358032,1746.5000031888485A6,6,0,1,1,203.50001001358032,1746.5000031888485A6,6,0,1,1,215.50001001358032,1746.5000031888485"></path><path id="kity_path_1852" fill="none" stroke="gray"></path></g><path id="node_outline186" fill="none" stroke="none" d="M115.50001001358032,1735.5000031888485h83a5,5,0,0,1,5,5v12a5,5,0,0,1,-5,5h-83a5,5,0,0,1,-5,-5v-12a5,5,0,0,1,5,-5z"></path><g id="node_text186" fill="black"><text id="kity_text_1523" text-rendering="inherit" font-size="12" dy=".8em" y="1738.7000032365322" x="120.50001001358032">Zuul路由网关</text></g></g><g id="minder_node188"><g id="node_expander186" display="none" style="cursor: pointer;"><path id="kity_path_1854" fill="white" stroke="gray" d="M215.50000736117363,1798.5000047385693A6,6,0,1,1,203.50000736117363,1798.5000047385693A6,6,0,1,1,215.50000736117363,1798.5000047385693"></path><path id="kity_path_1855" fill="none" stroke="gray"></path></g><path id="node_outline187" fill="none" stroke="none" d="M26.50000736117363,1787.5000047385693h172a5,5,0,0,1,5,5v12a5,5,0,0,1,-5,5h-172a5,5,0,0,1,-5,-5v-12a5,5,0,0,1,5,-5z"></path><g id="node_text187" fill="black"><text id="kity_text_1525" text-rendering="inherit" font-size="12" dy=".8em" y="1790.700004786253" x="31.50000736117363">SpringCloud Config配置中心</text></g></g><g id="minder_node189"><g id="node_expander196" style="cursor: pointer;"><path id="kity_path_1884" fill="white" stroke="gray" d="M379.5000151395798,2042.500012010336A6,6,0,1,1,367.5000151395798,2042.500012010336A6,6,0,1,1,379.5000151395798,2042.500012010336"></path><path id="kity_path_1885" fill="none" stroke="gray" d="M369.0000151395798,2042.500012010336L378.0000151395798,2042.500012010336"></path></g><path id="node_outline197" fill="rgb(238, 243, 246)" stroke="rgb(115, 161, 191)" d="M275.5000151395798,2029.500012010336h88a3,3,0,0,1,3,3v20a3,3,0,0,1,-3,3h-88a3,3,0,0,1,-3,-3v-20a3,3,0,0,1,3,-3z" stroke-width="1"></path><g id="node_text197" fill="black"><text id="kity_text_1545" text-rendering="inherit" font-size="14" dy=".8em" y="2033.4000121057034" x="292.5000151395798">Hadoop</text></g></g><g id="minder_node190"><g id="node_expander188" display="none" style="cursor: pointer;"><path id="kity_path_1860" fill="white" stroke="gray" d="M244.50001195073128,1860.5000065863132A6,6,0,1,1,232.50001195073128,1860.5000065863132A6,6,0,1,1,244.50001195073128,1860.5000065863132"></path><path id="kity_path_1861" fill="none" stroke="gray"></path></g><path id="node_outline189" fill="none" stroke="none" d="M180.50001195073128,1849.5000065863132h47a5,5,0,0,1,5,5v12a5,5,0,0,1,-5,5h-47a5,5,0,0,1,-5,-5v-12a5,5,0,0,1,5,-5z"></path><g id="node_text189" fill="black"><text id="kity_text_1529" text-rendering="inherit" font-size="12" dy=".8em" y="1852.700006633997" x="185.50001195073128">大数据</text></g></g><g id="minder_node191"><g id="node_expander189" display="none" style="cursor: pointer;"><path id="kity_path_1863" fill="white" stroke="gray" d="M244.50001093745232,1912.500008136034A6,6,0,1,1,232.50001093745232,1912.500008136034A6,6,0,1,1,244.50001093745232,1912.500008136034"></path><path id="kity_path_1864" fill="none" stroke="gray"></path></g><path id="node_outline190" fill="none" stroke="none" d="M146.50001093745232,1901.500008136034h81a5,5,0,0,1,5,5v12a5,5,0,0,1,-5,5h-81a5,5,0,0,1,-5,-5v-12a5,5,0,0,1,5,-5z"></path><g id="node_text190" fill="black"><text id="kity_text_1531" text-rendering="inherit" font-size="12" dy=".8em" y="1904.7000081837177" x="151.50001093745232">Hadoop简介</text></g></g><g id="minder_node192"><g id="node_expander190" display="none" style="cursor: pointer;"><path id="kity_path_1866" fill="white" stroke="gray" d="M244.50001022219658,1964.5000096857548A6,6,0,1,1,232.50001022219658,1964.5000096857548A6,6,0,1,1,244.50001022219658,1964.5000096857548"></path><path id="kity_path_1867" fill="none" stroke="gray"></path></g><path id="node_outline191" fill="none" stroke="none" d="M122.50001022219658,1953.5000096857548h105a5,5,0,0,1,5,5v12a5,5,0,0,1,-5,5h-105a5,5,0,0,1,-5,-5v-12a5,5,0,0,1,5,-5z"></path><g id="node_text191" fill="black"><text id="kity_text_1533" text-rendering="inherit" font-size="12" dy=".8em" y="1956.7000097334385" x="127.50001022219658">Hadoop环境搭建</text></g></g><g id="minder_node193"><g id="node_expander191" display="none" style="cursor: pointer;"><path id="kity_path_1869" fill="white" stroke="gray" d="M244.5000120997429,2016.5000112354755A6,6,0,1,1,232.5000120997429,2016.5000112354755A6,6,0,1,1,244.5000120997429,2016.5000112354755"></path><path id="kity_path_1870" fill="none" stroke="gray"></path></g><path id="node_outline192" fill="none" stroke="none" d="M185.5000120997429,2005.5000112354755h42a5,5,0,0,1,5,5v12a5,5,0,0,1,-5,5h-42a5,5,0,0,1,-5,-5v-12a5,5,0,0,1,5,-5z"></path><g id="node_text192" fill="black"><text id="kity_text_1535" text-rendering="inherit" font-size="12" dy=".8em" y="2008.7000112831593" x="190.5000120997429">HDFS</text></g></g><g id="minder_node194"><g id="node_expander192" display="none" style="cursor: pointer;"><path id="kity_path_1872" fill="white" stroke="gray" d="M244.50001102685928,2068.5000127851963A6,6,0,1,1,232.50001102685928,2068.5000127851963A6,6,0,1,1,244.50001102685928,2068.5000127851963"></path><path id="kity_path_1873" fill="none" stroke="gray"></path></g><path id="node_outline193" fill="none" stroke="none" d="M149.50001102685928,2057.5000127851963h78a5,5,0,0,1,5,5v12a5,5,0,0,1,-5,5h-78a5,5,0,0,1,-5,-5v-12a5,5,0,0,1,5,-5z"></path><g id="node_text193" fill="black"><text id="kity_text_1537" text-rendering="inherit" font-size="12" dy=".8em" y="2060.70001283288" x="154.50001102685928">MapReduce</text></g></g><g id="minder_node195"><g id="node_expander193" display="none" style="cursor: pointer;"><path id="kity_path_1875" fill="white" stroke="gray" d="M244.50001230835915,2120.500014334917A6,6,0,1,1,232.50001230835915,2120.500014334917A6,6,0,1,1,244.50001230835915,2120.500014334917"></path><path id="kity_path_1876" fill="none" stroke="gray"></path></g><path id="node_outline194" fill="none" stroke="none" d="M192.50001230835915,2109.500014334917h35a5,5,0,0,1,5,5v12a5,5,0,0,1,-5,5h-35a5,5,0,0,1,-5,-5v-12a5,5,0,0,1,5,-5z"></path><g id="node_text194" fill="black"><text id="kity_text_1539" text-rendering="inherit" font-size="12" dy=".8em" y="2112.700014382601" x="197.50001230835915">Yarn</text></g></g><g id="minder_node196"><g id="node_expander194" display="none" style="cursor: pointer;"><path id="kity_path_1878" fill="white" stroke="gray" d="M244.50001227855682,2172.500015884638A6,6,0,1,1,232.50001227855682,2172.500015884638A6,6,0,1,1,244.50001227855682,2172.500015884638"></path><path id="kity_path_1879" fill="none" stroke="gray"></path></g><path id="node_outline195" fill="none" stroke="none" d="M191.50001227855682,2161.500015884638h36a5,5,0,0,1,5,5v12a5,5,0,0,1,-5,5h-36a5,5,0,0,1,-5,-5v-12a5,5,0,0,1,5,-5z"></path><g id="node_text195" fill="black"><text id="kity_text_1541" text-rendering="inherit" font-size="12" dy=".8em" y="2164.7000159323215" x="196.50001227855682">Hive</text></g></g><g id="minder_node197"><g id="node_expander195" display="none" style="cursor: pointer;"><path id="kity_path_1881" fill="white" stroke="gray" d="M244.5000119805336,2224.5000174343586A6,6,0,1,1,232.5000119805336,2224.5000174343586A6,6,0,1,1,244.5000119805336,2224.5000174343586"></path><path id="kity_path_1882" fill="none" stroke="gray"></path></g><path id="node_outline196" fill="none" stroke="none" d="M181.5000119805336,2213.5000174343586h46a5,5,0,0,1,5,5v12a5,5,0,0,1,-5,5h-46a5,5,0,0,1,-5,-5v-12a5,5,0,0,1,5,-5z"></path><g id="node_text196" fill="black"><text id="kity_text_1543" text-rendering="inherit" font-size="12" dy=".8em" y="2216.7000174820423" x="186.5000119805336">Hbase</text></g></g><g id="minder_node162"><g id="node_expander160" display="none" style="cursor: pointer;"><path id="kity_path_1776" fill="white" stroke="gray" d="M857.5000322759151,2307.5000199079514A6,6,0,1,1,845.5000322759151,2307.5000199079514A6,6,0,1,1,857.5000322759151,2307.5000199079514"></path><path id="kity_path_1777" fill="none" stroke="gray"></path></g><path id="node_outline161" fill="none" stroke="none" d="M862.5000322759151,2296.5000199079514h27a5,5,0,0,1,5,5v12a5,5,0,0,1,-5,5h-27a5,5,0,0,1,-5,-5v-12a5,5,0,0,1,5,-5z"></path><g id="node_text161" fill="black"><text id="kity_text_1473" text-rendering="inherit" font-size="12" dy=".8em" y="2299.700019955635" x="867.5000322759151">Git</text></g></g><g id="minder_node163"><g id="node_expander161" display="none" style="cursor: pointer;"><path id="kity_path_1779" fill="white" stroke="gray" d="M857.5000322759151,2359.500021457672A6,6,0,1,1,845.5000322759151,2359.500021457672A6,6,0,1,1,857.5000322759151,2359.500021457672"></path><path id="kity_path_1780" fill="none" stroke="gray"></path></g><path id="node_outline162" fill="none" stroke="none" d="M862.5000322759151,2348.500021457672h55a5,5,0,0,1,5,5v12a5,5,0,0,1,-5,5h-55a5,5,0,0,1,-5,-5v-12a5,5,0,0,1,5,-5z"></path><g id="node_text162" fill="black"><text id="kity_text_1475" text-rendering="inherit" font-size="12" dy=".8em" y="2351.700021505356" x="867.5000322759151">MyBaits</text></g></g><g id="minder_node164"><g id="node_expander162" display="none" style="cursor: pointer;"><path id="kity_path_1782" fill="white" stroke="gray" d="M857.5000322759151,2411.500023007393A6,6,0,1,1,845.5000322759151,2411.500023007393A6,6,0,1,1,857.5000322759151,2411.500023007393"></path><path id="kity_path_1783" fill="none" stroke="gray"></path></g><path id="node_outline163" fill="none" stroke="none" d="M862.5000322759151,2400.500023007393h47a5,5,0,0,1,5,5v12a5,5,0,0,1,-5,5h-47a5,5,0,0,1,-5,-5v-12a5,5,0,0,1,5,-5z"></path><g id="node_text163" fill="black"><text id="kity_text_1477" text-rendering="inherit" font-size="12" dy=".8em" y="2403.7000230550766" x="867.5000322759151">Spring</text></g></g><g id="minder_node165"><g id="node_expander163" display="none" style="cursor: pointer;"><path id="kity_path_1785" fill="white" stroke="gray" d="M857.5000322759151,2463.5000245571136A6,6,0,1,1,845.5000322759151,2463.5000245571136A6,6,0,1,1,857.5000322759151,2463.5000245571136"></path><path id="kity_path_1786" fill="none" stroke="gray"></path></g><path id="node_outline164" fill="none" stroke="none" d="M862.5000322759151,2452.5000245571136h75a5,5,0,0,1,5,5v12a5,5,0,0,1,-5,5h-75a5,5,0,0,1,-5,-5v-12a5,5,0,0,1,5,-5z"></path><g id="node_text164" fill="black"><text id="kity_text_1479" text-rendering="inherit" font-size="12" dy=".8em" y="2455.7000246047974" x="867.5000322759151">SpringMVC</text></g></g></g></g></svg>